<svg xmlns:xlink="http://www.w3.org/1999/xlink" viewBox="0 0 48 40" fill="none" xmlns="http://www.w3.org/2000/svg" class="w-12 text-blue" width="48"  height="40" ><path fill-rule="evenodd" clip-rule="evenodd" d="M48 10.0457C48 7.65094 46.0392 5.70269 43.6289 5.70269C41.2187 5.70269 39.2579 7.65094 39.2579 10.0457C39.2579 10.8168 39.4826 11.5271 39.8298 12.1563L33.9677 16.4587L27.3906 9.23389C28.6162 8.28006 29.4128 6.81887 29.4128 5.17504C29.4128 2.31355 27.0843 0 24.2043 0C21.3243 0 18.9957 2.31355 18.9957 5.17504C18.9957 6.83917 19.8128 8.32065 21.0383 9.27448L14.6655 16.4587L8.39489 11.8519C8.64 11.3039 8.8034 10.6951 8.8034 10.0457C8.8034 7.65094 6.84255 5.70269 4.43234 5.70269C2.02213 5.70269 0 7.65094 0 10.0457C0 12.4404 1.96085 14.3886 4.37106 14.3886C4.47319 14.3886 4.55489 14.3683 4.65702 14.3683L8.23149 31.8011C6.14809 32.0244 4.51404 33.7494 4.51404 35.8803C4.51404 38.1532 6.37277 40 8.66043 40H39.9319C42.2196 40 44.0783 38.1532 44.0783 35.8803C44.0783 33.7291 42.4238 32.0041 40.32 31.8011L43.6494 14.3886C46.0392 14.3683 47.9796 12.4201 47.9796 10.0457L48 10.0457ZM43.6289 8.74683C44.3438 8.74683 44.9362 9.33536 44.9362 10.0457C44.9362 10.756 44.3438 11.3445 43.6289 11.3445C42.914 11.3445 42.3217 10.756 42.3217 10.0457C42.3217 9.33536 42.914 8.74683 43.6289 8.74683ZM24.1838 3.04414C25.3685 3.04414 26.3285 3.99797 26.3285 5.17504C26.3285 6.35211 25.3685 7.30594 24.1838 7.30594C22.9991 7.30594 22.0391 6.35211 22.0391 5.17504C22.0391 3.99797 22.9991 3.04414 24.1838 3.04414ZM15.074 20.5581L24.143 10.3501H24.1838C24.1838 10.3501 24.2247 10.3501 24.2655 10.3501L33.5592 20.5378L40.3404 15.5657L37.2357 31.7605L11.3566 31.7605L7.98638 15.3628L15.074 20.5581ZM3.06383 10.0457C3.06383 9.33536 3.65617 8.74683 4.37106 8.74683C5.08596 8.74683 5.6783 9.33536 5.6783 10.0457C5.6783 10.756 5.08596 11.3445 4.37106 11.3445C3.65617 11.3445 3.06383 10.756 3.06383 10.0457ZM41.0349 35.8803C41.0349 36.4688 40.5447 36.9559 39.9523 36.9559H8.66043C8.06808 36.9559 7.57787 36.4688 7.57787 35.8803C7.57787 35.2917 8.06808 34.8047 8.66043 34.8047H39.9319C40.5243 34.8047 41.0145 35.2917 41.0145 35.8803H41.0349Z" fill="#0365F2"></path></svg>