<svg xmlns:xlink="http://www.w3.org/1999/xlink" viewBox="0 0 24 24"  xmlns="http://www.w3.org/2000/svg" class="w-6 h-6 p-1 -rotate-90 flex-shrink-0" width="12"  height="12" ><path fill-rule="evenodd" clip-rule="evenodd" d="M12 14.879l-7.94-7.94a1.5 1.5 0 10-2.12 2.122l9 9a1.5 1.5 0 002.12 0l9-9a1.5 1.5 0 00-2.12-2.122L12 14.88z"></path><mask id="a" maskUnits="userSpaceOnUse" x="1" y="6" width="22" height="13" ><path fill-rule="evenodd" clip-rule="evenodd" d="M12 14.879l-7.94-7.94a1.5 1.5 0 10-2.12 2.122l9 9a1.5 1.5 0 002.12 0l9-9a1.5 1.5 0 00-2.12-2.122L12 14.88z" ></path></mask></svg>