<svg xmlns:xlink="http://www.w3.org/1999/xlink" xmlns="http://www.w3.org/2000/svg" width="24" height="24" viewBox="0 0 24 24" class="discover-menu__sprite sprite-vue sprite-vue--category sprite-vue--biography-and-history"><clipPath id="a" ><path d="M0 0h24v24H0z" ></path></clipPath><g clip-path="url(#a)" ><path d="M23.51 6.33a3.18 3.18 0 0 0-2.72-1.51h-4l.25-1.25.67-1.84a1.22 1.22 0 0 0-.04-1.17 1.2 1.2 0 0 0-1-.56H7.15a1.2 1.2 0 0 0-1 .58 1.16 1.16 0 0 0-.1 1.12l.77 1.88.32 1.09v.15H3.22A3.19 3.19 0 0 0 .49 6.33a3.16 3.16 0 0 0-.17 3.08A10.36 10.36 0 0 0 3.2 13a5.8 5.8 0 0 0 0 4l.16.43 2 .24-.31 2 1.75 1.71-.4.47a1.3 1.3 0 0 0 1 2.16h9.22a1.3 1.3 0 0 0 1-2.16l-.41-.47 2.25-2.31A5.84 5.84 0 0 0 20.79 13a10.398 10.398 0 0 0 2.89-3.6 3.16 3.16 0 0 0-.17-3.07zM1.67 8.76a1.66 1.66 0 0 1 .09-1.64 1.72 1.72 0 0 1 1.46-.8h4a8.21 8.21 0 0 1-2.5 4.39 6.167 6.167 0 0 0-.76.93 8.86 8.86 0 0 1-2.29-2.88zM18.36 18l-3.2 3.29 1 1.19H7.81l1-1.19-2.13-2.19.44-2.78L4.5 16a4.24 4.24 0 0 1 .36-3.07 4.92 4.92 0 0 1 .86-1.16C8.06 9.48 9.13 6.7 8.59 4.29l-.36-1.21-.64-1.58h8.64l-.59 1.61-.29 1.43a7.261 7.261 0 0 0-.16 1.24 7.002 7.002 0 0 0 2.69 5.65 4.83 4.83 0 0 1 1.32 1.63 4.34 4.34 0 0 1-.84 4.94zm4-9.27a8.83 8.83 0 0 1-2.23 2.88 6.469 6.469 0 0 0-1.29-1.38 5.58 5.58 0 0 1-2.1-3.94h4.08a1.7 1.7 0 0 1 1.705 1.627 1.66 1.66 0 0 1-.195.843z" ></path></g></svg>