<svg xmlns:xlink="http://www.w3.org/1999/xlink"  viewBox="0 0 24 24" xmlns="http://www.w3.org/2000/svg" data-test-id="tooltip-icon" class="w-4 h-4 text-mid-grey block" width="24"  height="24" ><g ><path d="M12 0C5.384 0 0 5.382 0 12s5.382 12 12 12 12-5.382 12-12S18.616 0 12 0zm0 22.632C6.137 22.632 1.368 17.863 1.368 12 1.368 6.137 6.137 1.368 12 1.368c5.863 0 10.632 4.769 10.632 10.632 0 5.863-4.769 10.632-10.632 10.632z" ></path><path d="M12.044 7C11.468 7 11 7.432 11 8.008c0 .564.468.996 1.044.996.564 0 1.032-.432 1.032-.996 0-.576-.468-1.008-1.032-1.008zm.804 3.5h-1.62v5.608h1.62z" ></path></g></svg>